<svg width="28" height="28" viewBox="0 0 28 28" fill="none" xmlns="http://www.w3.org/2000/svg">
<path fill-rule="evenodd" clip-rule="evenodd" d="M23.0462 14.638H20.204C20.0225 14.638 19.8534 14.5517 19.7507 14.407C19.6484 14.2628 19.6255 14.079 19.6907 13.9153L20.8485 11.0042L20.8586 10.9789C21.1514 10.2022 21.2991 9.38882 21.2991 8.55865C21.2991 4.66645 18.0249 1.5 14.0001 1.5C9.97568 1.5 6.70094 4.66645 6.70094 8.55865C6.70094 9.04423 6.75242 9.52888 6.85322 9.99952C6.91906 10.3065 7.00915 10.6164 7.12038 10.9201C7.12282 10.9261 7.12471 10.9318 7.1262 10.9377L7.206 11.1424L7.21521 11.1669L8.28453 13.9191C8.34806 14.0825 8.3249 14.2655 8.22166 14.4091C8.11938 14.5521 7.95044 14.6379 7.76958 14.6379H4.95438C3.8764 14.6379 3 15.4856 3 16.5282C3 17.57 3.8764 18.4181 4.95438 18.4181H7.94407C8.16693 18.4181 8.36771 18.548 8.45252 18.7475C8.53759 18.9466 8.4895 19.1759 8.33086 19.3279L6.14373 21.4219C5.77672 21.7771 5.57297 22.2518 5.57297 22.7565C5.57297 23.2615 5.77672 23.7359 6.1459 24.0931C6.51453 24.4501 7.00576 24.6464 7.52748 24.6464C8.04961 24.6464 8.53949 24.4507 8.90717 24.0952L11.1091 21.9868C11.2141 21.8859 11.354 21.8329 11.4957 21.8329C11.5668 21.8329 11.6388 21.846 11.7075 21.8737C11.912 21.9564 12.0452 22.1498 12.0452 22.3642V25.2765C12.0452 26.3186 12.9223 27.1667 13.9996 27.1667C15.0773 27.1667 15.9544 26.3186 15.9544 25.2765V22.3669C15.9544 22.1521 16.0874 21.9585 16.2928 21.8758C16.4974 21.7929 16.7338 21.8382 16.8912 21.9894L19.0814 24.0917C19.4521 24.4501 19.9431 24.6464 20.4648 24.6464C20.9867 24.6464 21.4776 24.4501 21.8467 24.0931C22.216 23.7358 22.419 23.2616 22.419 22.7565C22.419 22.2518 22.215 21.7766 21.8453 21.4186L19.6658 19.3271C19.5077 19.1751 19.4602 18.9464 19.5449 18.7472C19.63 18.548 19.8302 18.4181 20.0531 18.4181H23.0459C24.1232 18.4181 25 17.57 25 16.5282C25.0001 15.4858 24.1235 14.638 23.0462 14.638ZM11.9036 7.08243C11.0104 7.08243 10.2837 7.78512 10.2837 8.64896C10.2837 9.51267 11.0104 10.2155 11.9036 10.2155C12.7966 10.2155 13.5233 9.51267 13.5233 8.64896C13.5233 7.78512 12.7966 7.08243 11.9036 7.08243ZM17.5672 9.75693C16.9361 10.3675 15.9083 10.3672 15.277 9.75693C14.6451 9.14558 14.6451 8.15189 15.277 7.5408C15.908 6.93075 16.9357 6.93049 17.5672 7.54119C17.8169 7.78293 18.2221 7.78293 18.472 7.54119C18.7217 7.29971 18.7217 6.90808 18.472 6.6666C17.3416 5.57373 15.5025 5.57282 14.3723 6.66634C14.2967 6.73958 14.2269 6.81597 14.1615 6.89524C13.6296 6.25584 12.8155 5.84521 11.9033 5.84521C10.3049 5.84521 9.00442 7.10304 9.00442 8.64886C9.00442 10.1947 10.3049 11.4525 11.9033 11.4525C12.8155 11.4525 13.6296 11.0418 14.1615 10.4025C14.2269 10.4818 14.2965 10.558 14.3723 10.6314C14.9373 11.178 15.6797 11.4513 16.4222 11.4513C17.1646 11.4513 17.9066 11.178 18.472 10.6314C18.7217 10.3899 18.7217 9.99828 18.472 9.75693C18.2221 9.51506 17.8169 9.51506 17.5672 9.75693Z" fill="white"/>
</svg>
