<svg width="16" height="16" viewBox="0 0 16 16" fill="none" xmlns="http://www.w3.org/2000/svg">
<path d="M1.23781 6.15L2.3375 3.00906C2.75844 1.80563 3.89375 1 5.16875 1H10.8313C12.1063 1 13.2406 1.80563 13.6625 3.00906L14.7625 6.15C15.4875 6.45 16 7.16562 16 8V14C16 14.5531 15.5531 15 15 15H14C13.4469 15 13 14.5531 13 14V12.5H3V14C3 14.5531 2.55219 15 2 15H1C0.447812 15 0 14.5531 0 14V8C0 7.16562 0.51125 6.45 1.23781 6.15ZM3.40937 6H12.5906L11.775 3.66875C11.6344 3.26875 11.2563 3 10.8313 3H5.16875C4.74375 3 4.36562 3.26875 4.225 3.66875L3.40937 6ZM3 8C2.44781 8 2 8.44687 2 9C2 9.55313 2.44781 10 3 10C3.55313 10 4 9.55313 4 9C4 8.44687 3.55313 8 3 8ZM13 10C13.5531 10 14 9.55313 14 9C14 8.44687 13.5531 8 13 8C12.4469 8 12 8.44687 12 9C12 9.55313 12.4469 10 13 10Z" fill="#999B9F"/>
</svg>
