<svg width="84" height="96" viewBox="0 0 84 96" fill="none" xmlns="http://www.w3.org/2000/svg">
<g clip-path="url(#clip0_1211_353)">
<rect y="12" width="84" height="84" rx="26" fill="#F0F0F0"/>
<path d="M7.89026 68.0351L-0.450195 96.0037H38.8374L29.1927 66.6106L38.342 61.0265L46.7609 76.6188H56.2537L44.0119 52.221L39.201 46.2075L44.7851 47.2813L46.1595 40.2369L48.9352 40.7205L45.7388 34.1097L39.9998 30.986L33.2438 39.994L30.7738 38.4685L24.381 47.5492L31.8635 53.0702L7.89026 68.0351Z" fill="#1A1A1A"/>
<path d="M16.1765 41.3644L11.5401 56.6801C11.4748 56.896 11.7597 57.0392 11.894 56.8581L27.221 36.1867L15.6985 27.8671L27.7873 24.3908L28.7108 28.8525L30.9176 28.4424L29.941 23.7862L30.7733 21.7574L30.3092 19.1319L26.2004 17.4552L24.3805 21.0312H4.8008L2.58393 24.9045L16.1765 41.3644Z" fill="#1A1A1A"/>
<path d="M28.2577 16.1363L25.9971 6.23108L23.7871 6.66285L25.6669 15.0696L28.2577 16.1363Z" fill="#1A1A1A"/>
<path d="M42.165 88.2594L40.6612 95.9911H45.4723L46.1166 93.5856L51.7435 90.9226V88.4948L38.9434 78.7666L42.165 88.2594Z" fill="#1A1A1A"/>
<path d="M65.8936 93.5856L66.5375 96.0164H87.121C99.1112 67.2697 62.7685 65.4048 63.6763 38.1854C51.4294 50.2407 54.7234 68.6452 60.8509 76.9625H83.5904L81.6198 81.0658L60.3092 88.4947V90.9649L65.8936 93.5856Z" fill="#1A1A1A"/>
</g>
<g clip-path="url(#clip1_1211_353)">
<path d="M21.2981 2.71645L18.9863 8.97005L29.9051 6.96888L28.7205 1.25659L21.2981 2.71645Z" fill="#1A1A1A"/>
<path d="M28.2577 16.1363L25.9971 6.23108L23.7871 6.66285L25.6669 15.0696L28.2577 16.1363Z" fill="#1A1A1A"/>
</g>
<defs>
<clipPath id="clip0_1211_353">
<rect y="12" width="84" height="84" rx="26" fill="white"/>
</clipPath>
<clipPath id="clip1_1211_353">
<rect width="84" height="16" fill="white" transform="translate(0 1)"/>
</clipPath>
</defs>
</svg>
