<svg width="64" height="64" viewBox="0 0 64 64" fill="none" xmlns="http://www.w3.org/2000/svg">
<path opacity="0.4" d="M20.443 29.0939H43.557V20.3624C43.557 17.1494 42.4285 14.4065 40.1716 12.1339C37.9147 9.86122 35.1908 8.7249 32 8.7249C28.8092 8.7249 26.0853 9.86122 23.8284 12.1339C21.5715 14.4065 20.443 17.1494 20.443 20.3624V29.0939ZM58 33.4563V59.6375C58 60.8522 57.5785 61.8775 56.7353 62.7265C55.8922 63.5755 54.8675 64 53.6677 64H10.3323C9.12597 64 8.10776 63.5755 7.26465 62.7265C6.42155 61.8775 6 60.8457 6 59.6375V33.4563C6 32.2416 6.42155 31.2163 7.26465 30.3673C8.10776 29.5184 9.13245 29.0939 10.3323 29.0939H11.7785V20.3624C11.7785 14.7853 13.763 9.99837 17.7386 6.00163C21.7077 2.0049 26.4679 0 32 0C37.5321 0 42.2923 1.99837 46.2614 6.00163C50.237 10.0049 52.2215 14.7918 52.2215 20.3624V29.0873H53.6677C54.874 29.0873 55.8922 29.5118 56.7353 30.3608C57.5785 31.2163 58 32.2416 58 33.4563Z" fill="#999999"/>
</svg>
