<svg width="40" height="40" viewBox="0 0 40 40" fill="none" xmlns="http://www.w3.org/2000/svg">
<path d="M12.4946 19.8706L7.63493 30.2358C7.48193 30.5491 7.64343 30.7458 8.15344 30.6487L12.1096 29.789C12.1484 29.7754 12.1896 29.7701 12.2305 29.7733C12.2715 29.7765 12.3113 29.7881 12.3475 29.8075C12.3837 29.827 12.4154 29.8537 12.4408 29.886C12.4661 29.9184 12.4844 29.9556 12.4946 29.9954L14.2759 33.6468C14.4459 34.0402 14.6426 34.1204 14.7956 33.8083L19.9686 22.9598L12.4946 19.8706V19.8706ZM27.479 19.8706L32.3386 30.2358C32.5001 30.5491 32.3301 30.7458 31.8201 30.6487L27.8639 29.789C27.8251 29.7758 27.784 29.7707 27.7432 29.7741C27.7024 29.7775 27.6627 29.7892 27.6266 29.8086C27.5905 29.8279 27.5588 29.8545 27.5334 29.8866C27.508 29.9188 27.4895 29.9558 27.479 29.9954L25.6976 33.6468C25.5276 34.0402 25.3394 34.1204 25.1779 33.8083L20.005 22.9598L27.479 19.8706Z" fill="#FF9E44"/>
<path d="M18.527 25.976C18.527 25.9845 18.51 25.976 18.4918 25.976C15.78 25.6752 13.2377 24.5075 11.2425 22.6464C11.2328 22.6367 11.206 22.6282 11.2145 22.6185L11.438 22.1449C11.4477 22.1267 11.4647 22.1716 11.4744 22.1814C13.3893 23.9615 16.0487 25.0811 18.7687 25.4114C18.7784 25.4114 18.7966 25.4114 18.7966 25.4211L18.527 25.976Z" fill="#D55E1B"/>
<path d="M19.9868 25.4735C27.0211 25.4735 32.7235 19.7711 32.7235 12.7368C32.7235 5.70245 27.0211 0 19.9868 0C12.9524 0 7.25 5.70245 7.25 12.7368C7.25 19.7711 12.9524 25.4735 19.9868 25.4735Z" fill="white"/>
<path d="M19.9867 23.7203C26.0527 23.7203 30.9701 18.8029 30.9701 12.737C30.9701 6.67106 26.0527 1.75366 19.9867 1.75366C13.9208 1.75366 9.00342 6.67106 9.00342 12.737C9.00342 18.8029 13.9208 23.7203 19.9867 23.7203Z" fill="#2F7FEF"/>
<path d="M20.2901 23.6789C26.1582 23.6789 30.9153 18.9219 30.9153 13.0538C30.9153 7.18573 26.1582 2.42871 20.2901 2.42871C14.4221 2.42871 9.66504 7.18573 9.66504 13.0538C9.66504 18.9219 14.4221 23.6789 20.2901 23.6789Z" fill="#D2E5FF"/>
<path fill-rule="evenodd" clip-rule="evenodd" d="M15.9683 10.9505V10.9942H18.3592V10.9444C18.3592 10.0968 18.9712 9.49937 19.8528 9.49937C20.6992 9.49937 21.2553 10.0045 21.2553 10.7586C21.2553 11.3633 20.8704 11.883 19.361 13.277L16.1188 16.3298V18.0735H23.9231V16.0384H19.5966V15.9036L21.2905 14.3444C23.112 12.7221 23.7798 11.7118 23.7798 10.574C23.7798 8.75986 22.2438 7.52856 19.9451 7.52856C17.5626 7.52856 15.9683 8.90922 15.9683 10.9505V10.9505Z" fill="#2F7FEF"/>
<path d="M22.9856 3.75122C24.9674 4.22489 26.7369 5.34082 28.0183 6.9251C29.2997 8.50938 30.0211 10.473 30.07 12.5101C30.1189 14.5471 29.4927 16.5432 28.2888 18.1871C27.0849 19.8311 25.371 21.0307 23.4142 21.599C25.8853 19.7107 27.5234 16.488 27.5234 12.8269C27.5234 8.96056 25.6971 5.58602 22.9844 3.75122H22.9856Z" fill="white" fill-opacity="0.5"/>
<path d="M21.4458 25.9764C21.4543 25.9849 21.4726 25.9764 21.4811 25.9764C24.2654 25.6267 26.824 24.5071 28.7498 22.6638C28.7583 22.6553 28.7851 22.6468 28.7766 22.6371L28.5519 22.1635C28.5434 22.1453 28.5252 22.1902 28.5155 22.1987C26.6005 23.9801 23.9339 25.0814 21.2042 25.4117C21.1945 25.4117 21.1763 25.4117 21.1763 25.4214L21.4458 25.9764V25.9764Z" fill="#D55E1B"/>
</svg>
