<svg width="40" height="40" viewBox="0 0 40 40" fill="none" xmlns="http://www.w3.org/2000/svg">
<path fill-rule="evenodd" clip-rule="evenodd" d="M31.3077 20.7975H27.755C27.5281 20.7975 27.3167 20.6896 27.1884 20.5087C27.0605 20.3285 27.0319 20.0988 27.1134 19.8941L28.5606 16.2552L28.5733 16.2236C28.9393 15.2527 29.1239 14.236 29.1239 13.1984C29.1239 8.33306 25.0311 4.375 20.0001 4.375C14.9696 4.375 10.8762 8.33306 10.8762 13.1984C10.8762 13.8052 10.9405 14.4111 11.0665 14.9994C11.1488 15.3831 11.2614 15.7705 11.4005 16.1501C11.4035 16.1576 11.4059 16.1648 11.4077 16.1721L11.5075 16.428L11.519 16.4586L12.8556 19.8989C12.9351 20.1031 12.9061 20.3319 12.7771 20.5114C12.6492 20.6901 12.438 20.7974 12.212 20.7974H8.69298C7.3455 20.7974 6.25 21.857 6.25 23.1603C6.25 24.4625 7.3455 25.5226 8.69298 25.5226H12.4301C12.7086 25.5226 12.9596 25.685 13.0656 25.9344C13.172 26.1832 13.1119 26.4699 12.9136 26.6599L10.1797 29.2774C9.7209 29.7214 9.46621 30.3148 9.46621 30.9456C9.46621 31.5769 9.7209 32.1699 10.1824 32.6164C10.6432 33.0626 11.2572 33.308 11.9094 33.308C12.562 33.308 13.1744 33.0634 13.634 32.619L16.3864 29.9835C16.5176 29.8574 16.6925 29.7911 16.8696 29.7911C16.9585 29.7911 17.0485 29.8075 17.1344 29.8421C17.39 29.9455 17.5565 30.1873 17.5565 30.4553V34.0956C17.5565 35.3983 18.6529 36.4584 19.9995 36.4584C21.3466 36.4584 22.443 35.3983 22.443 34.0956V30.4586C22.443 30.1901 22.6093 29.9481 22.866 29.8447C23.1218 29.7411 23.4172 29.7978 23.614 29.9868L26.3517 32.6146C26.8151 33.0626 27.4289 33.308 28.081 33.308C28.7334 33.308 29.347 33.0626 29.8084 32.6164C30.27 32.1697 30.5238 31.577 30.5238 30.9456C30.5238 30.3148 30.2688 29.7208 29.8066 29.2733L27.0823 26.6589C26.8846 26.4689 26.8253 26.183 26.9311 25.934C27.0375 25.685 27.2878 25.5226 27.5664 25.5226H31.3074C32.654 25.5226 33.75 24.4625 33.75 23.1603C33.7501 21.8573 32.6544 20.7975 31.3077 20.7975ZM17.3795 11.353C16.263 11.353 15.3546 12.2314 15.3546 13.3113C15.3546 14.3909 16.263 15.2694 17.3795 15.2694C18.4957 15.2694 19.4041 14.3909 19.4041 13.3113C19.4041 12.2314 18.4957 11.353 17.3795 11.353ZM24.459 14.6961C23.6701 15.4594 22.3854 15.459 21.5963 14.6961C20.8064 13.932 20.8064 12.6899 21.5963 11.926C22.385 11.1634 23.6696 11.1631 24.459 11.9265C24.7711 12.2287 25.2776 12.2287 25.59 11.9265C25.9021 11.6246 25.9021 11.1351 25.59 10.8333C24.177 9.46716 21.8781 9.46602 20.4654 10.8329C20.3709 10.9245 20.2836 11.02 20.2019 11.119C19.537 10.3198 18.5194 9.80651 17.3791 9.80651C15.3811 9.80651 13.7555 11.3788 13.7555 13.3111C13.7555 15.2434 15.3811 16.8156 17.3791 16.8156C18.5194 16.8156 19.537 16.3023 20.2019 15.5031C20.2836 15.6023 20.3706 15.6975 20.4654 15.7893C21.1716 16.4725 22.0996 16.8141 23.0277 16.8141C23.9557 16.8141 24.8833 16.4725 25.59 15.7893C25.9021 15.4874 25.9021 14.9979 25.59 14.6961C25.2776 14.3939 24.7711 14.3939 24.459 14.6961Z" fill="white"/>
</svg>
