<svg width="16" height="16" viewBox="0 0 16 16" fill="none" xmlns="http://www.w3.org/2000/svg">
<path d="M2.06641 6.38672L3.02344 3.65234C3.40625 2.58594 4.39063 1.875 5.51172 1.875H10.4609C11.582 1.875 12.5664 2.58594 12.9492 3.65234L13.9063 6.38672C14.5352 6.66016 15 7.28906 15 8V13.25C15 13.7422 14.5898 14.125 14.125 14.125H13.25C12.7578 14.125 12.375 13.7422 12.375 13.25V11.9375H3.625V13.25C3.625 13.7422 3.21484 14.125 2.75 14.125H1.875C1.38281 14.125 1 13.7422 1 13.25V8C1 7.28906 1.4375 6.66016 2.06641 6.38672ZM3.98047 6.25H11.9922L11.2813 4.22656C11.1719 3.87109 10.8438 3.625 10.4609 3.625H5.51172C5.12891 3.625 4.80078 3.87109 4.69141 4.22656L3.98047 6.25ZM3.625 8C3.13281 8 2.75 8.41016 2.75 8.875C2.75 9.36719 3.13281 9.75 3.625 9.75C4.08984 9.75 4.5 9.36719 4.5 8.875C4.5 8.41016 4.08984 8 3.625 8ZM12.375 9.75C12.8398 9.75 13.25 9.36719 13.25 8.875C13.25 8.41016 12.8398 8 12.375 8C11.8828 8 11.5 8.41016 11.5 8.875C11.5 9.36719 11.8828 9.75 12.375 9.75Z" fill="#999B9F"/>
</svg>
