<?xml version="1.0" encoding="utf-8"?><svg width="36" height="106" viewBox="0 0 36 106" xmlns="http://www.w3.org/2000/svg" xmlns:xlink="http://www.w3.org/1999/xlink"><svg width="34" height="34" fill="none" viewBox="-2 -2 34 34" id="arrow" xmlns="http://www.w3.org/2000/svg"><path d="M14.612.564L13.316 1.86a.786.786 0 000 1.111L23.473 13.13H1.118a.786.786 0 00-.786.785v1.834c0 .433.352.785.786.785h22.355L13.316 26.69a.786.786 0 000 1.112l1.296 1.296a.786.786 0 001.112 0l13.711-13.711a.786.786 0 000-1.112L15.724.564a.786.786 0 00-1.112 0z" fill="#fff"/></svg><svg width="36" height="36" fill="none" viewBox="-2.25 -2.25 40.5 40.5" id="close" y="34" xmlns="http://www.w3.org/2000/svg"><path fill-rule="evenodd" clip-rule="evenodd" d="M21.556 18L34 5.556 30.444 2 18 14.444 5.556 2 2 5.556 14.444 18 2 30.444 5.556 34 18 21.555 30.445 34 34 30.444 21.556 18z" fill="#fff"/></svg><svg width="36" height="36" fill="none" viewBox="-4 -4 72 72" id="lock" y="70" xmlns="http://www.w3.org/2000/svg"><path opacity=".4" fill-rule="evenodd" clip-rule="evenodd" d="M54.28 28h-3.017v-9c0-10.475-8.573-19-19.107-19C21.623 0 13.05 8.525 13.05 19v9h-3.017C6.704 28 4 30.688 4 34v24c0 3.313 2.703 6 6.034 6h44.245c3.331 0 6.034-2.688 6.034-6V34c0-3.313-2.703-6-6.034-6zm-17.1 21c0 2.763-2.25 5-5.028 5-2.778 0-5.028-2.237-5.028-5v-6c0-2.762 2.25-5 5.028-5 2.778 0 5.028 2.238 5.028 5v6zM23.098 28h18.1v-9c0-4.963-4.06-9-9.05-9-4.99 0-9.05 4.037-9.05 9v9z" fill="#999"/></svg></svg>