<svg width="40" height="40" viewBox="0 0 40 40" fill="none" xmlns="http://www.w3.org/2000/svg">
<path fill-rule="evenodd" clip-rule="evenodd" d="M29.2908 22.3649C29.2908 25.1916 27.0122 27.5164 24.1854 27.625V32.6292H26.6938C27.3517 32.6292 27.8901 33.1628 27.8901 33.8147C27.8901 34.4667 27.3517 34.9999 26.6938 34.9999H22.9378C22.2797 34.9999 21.7416 34.4667 21.7416 33.8147C21.7416 33.7708 21.744 33.7274 21.7487 33.6847V27.6289H15.1346V32.6292H17.6425C18.3004 32.6292 18.8388 33.1628 18.8388 33.8147C18.8388 34.4667 18.3004 34.9999 17.6425 34.9999H13.8865C13.2284 34.9999 12.6903 34.4667 12.6903 33.8147C12.6903 33.7694 12.6929 33.7246 12.6979 33.6806V27.535C10.2495 27.0687 8.38456 24.9222 8.38456 22.3649V10.2643C8.38456 7.36902 10.7751 5 13.6963 5H23.9787L24.0052 5.00007H32.4182C32.8766 5.00007 33.1544 5.50151 32.9082 5.88485L29.2908 11.5159V22.3649ZM20.7098 8.54822C20.3462 8.54822 20.0514 8.84035 20.0514 9.20071C20.0514 10.4682 21.0885 11.496 22.3675 11.496C23.6467 11.496 24.6836 10.4683 24.6836 9.20071C24.6836 8.84035 24.3888 8.54822 24.0252 8.54822C23.6767 8.54822 23.3915 8.81651 23.3683 9.15604L23.3668 9.20071C23.3668 9.74759 22.9194 10.191 22.3675 10.191C21.8342 10.191 21.3981 9.77655 21.3697 9.25503L21.3682 9.20071C21.3682 8.84035 21.0734 8.54822 20.7098 8.54822Z" fill="black"/>
</svg>
