<svg width="40" height="40" viewBox="0 0 40 40" fill="none" xmlns="http://www.w3.org/2000/svg">
<g clip-path="url(#clip0_133_72424)">
<path d="M12.4943 19.8708L7.63469 30.236C7.48169 30.5493 7.64319 30.746 8.1532 30.6489L12.1094 29.7891C12.1481 29.7756 12.1893 29.7702 12.2303 29.7734C12.2712 29.7766 12.311 29.7883 12.3472 29.8077C12.3834 29.8271 12.4152 29.8538 12.4405 29.8862C12.4658 29.9185 12.4842 29.9558 12.4943 29.9956L14.2757 33.647C14.4457 34.0404 14.6424 34.1205 14.7954 33.8085L19.9683 22.9599L12.4943 19.8708V19.8708ZM27.4787 19.8708L32.3384 30.236C32.4999 30.5493 32.3299 30.746 31.8199 30.6489L27.8637 29.7891C27.8249 29.7759 27.7838 29.7709 27.743 29.7742C27.7022 29.7776 27.6625 29.7893 27.6264 29.8087C27.5902 29.8281 27.5585 29.8546 27.5331 29.8868C27.5077 29.9189 27.4892 29.956 27.4787 29.9956L25.6974 33.647C25.5274 34.0404 25.3392 34.1205 25.1776 33.8085L20.0047 22.9599L27.4787 19.8708Z" fill="#FF7144"/>
<path d="M18.5268 25.9761C18.5268 25.9846 18.5098 25.9761 18.4916 25.9761C15.7798 25.6753 13.2374 24.5076 11.2422 22.6465C11.2325 22.6368 11.2058 22.6283 11.2143 22.6186L11.4377 22.145C11.4474 22.1268 11.4644 22.1717 11.4742 22.1814C13.3891 23.9616 16.0484 25.0812 18.7684 25.4115C18.7782 25.4115 18.7964 25.4115 18.7964 25.4212L18.5268 25.9761Z" fill="#D55E1B"/>
<path d="M19.9868 25.4735C27.0211 25.4735 32.7235 19.7711 32.7235 12.7368C32.7235 5.70245 27.0211 0 19.9868 0C12.9524 0 7.25 5.70245 7.25 12.7368C7.25 19.7711 12.9524 25.4735 19.9868 25.4735Z" fill="white"/>
<path d="M19.9867 23.7202C26.0527 23.7202 30.9701 18.8028 30.9701 12.7369C30.9701 6.67097 26.0527 1.75357 19.9867 1.75357C13.9208 1.75357 9.00342 6.67097 9.00342 12.7369C9.00342 18.8028 13.9208 23.7202 19.9867 23.7202Z" fill="black"/>
<path d="M20.2901 23.6788C26.1582 23.6788 30.9153 18.9218 30.9153 13.0537C30.9153 7.18561 26.1582 2.42859 20.2901 2.42859C14.4221 2.42859 9.66504 7.18561 9.66504 13.0537C9.66504 18.9218 14.4221 23.6788 20.2901 23.6788Z" fill="#EBE3FF"/>
<path fill-rule="evenodd" clip-rule="evenodd" d="M15.9683 10.9505V10.9942H18.3592V10.9444C18.3592 10.0969 18.9712 9.49943 19.8528 9.49943C20.6992 9.49943 21.2553 10.0046 21.2553 10.7587C21.2553 11.3634 20.8704 11.8831 19.361 13.2771L16.1188 16.3299V18.0736H23.9231V16.0384H19.5966V15.9036L21.2905 14.3445C23.112 12.7222 23.7798 11.7119 23.7798 10.5741C23.7798 8.75992 22.2438 7.52863 19.9451 7.52863C17.5626 7.52863 15.9683 8.90928 15.9683 10.9505V10.9505Z" fill="black"/>
<path d="M22.9856 3.75113C24.9674 4.2248 26.7369 5.34072 28.0183 6.92501C29.2997 8.50929 30.0211 10.473 30.07 12.51C30.1189 14.5471 29.4927 16.5431 28.2888 18.1871C27.0849 19.831 25.371 21.0306 23.4142 21.5989C25.8853 19.7106 27.5234 16.4879 27.5234 12.8268C27.5234 8.96047 25.6971 5.58593 22.9844 3.75113H22.9856Z" fill="white" fill-opacity="0.5"/>
<path d="M21.4456 25.9763C21.4541 25.9848 21.4723 25.9763 21.4808 25.9763C24.2652 25.6266 26.8237 24.507 28.7496 22.6637C28.7581 22.6552 28.7848 22.6467 28.7763 22.637L28.5517 22.1634C28.5432 22.1452 28.525 22.1901 28.5152 22.1986C26.6003 23.98 23.9337 25.0814 21.204 25.4116C21.1942 25.4116 21.176 25.4116 21.176 25.4214L21.4456 25.9763V25.9763Z" fill="#D55E1B"/>
</g>
<defs>
<clipPath id="clip0_133_72424">
<rect width="40" height="40" fill="white"/>
</clipPath>
</defs>
</svg>
